# xmcd CD database file
#
# Track frame offsets:
#	150
#	18298
#	33340
#	51233
#	74810
#	91818
#	109455
#	125653
#	142633
#	161913
#	186045
#	202653
#	220690
#	239723
#	259495
#	279148
#
# Disc length: 3962 seconds
#
# Revision: 4
# Processed by: cddbd v1.5PL3 Copyright (c) Steve Scherf et al.
# Submitted via: CDex 1.51
#
DISCID=ea0f7810
DTITLE=PICASSO - Seize
DYEAR=1990
DGENRE=Japanese Pop
TTITLE0=月夜にダンス
TTITLE1=DREAM ON DREAM
TTITLE2=ジオラマグラフィティ
TTITLE3=チャイナタウンで踊った女
TTITLE4=本気！トリッキーレディ
TTITLE5=シネマ
TTITLE6=濡れた瞳のピクチャー
TTITLE7=傾斜する心
TTITLE8=獣達のバカンス
TTITLE9=ダイヤモンドの月
TTITLE10=蜜のイメージ
TTITLE11=抽象画
TTITLE12=どんな気分さ？
TTITLE13=TIDE
TTITLE14=サヨナラの素描
TTITLE15=ファンタジー
EXTD=YEAR: 1990
EXTT0=
EXTT1=
EXTT2=
EXTT3=
EXTT4=
EXTT5=
EXTT6=
EXTT7=
EXTT8=
EXTT9=
EXTT10=
EXTT11=
EXTT12=
EXTT13=
EXTT14=
EXTT15=
PLAYORDER=
